<svg width="143" height="35" viewBox="0 0 143 35" fill="none" xmlns="http://www.w3.org/2000/svg">
<path d="M12.5328 33.8841C10.1004 33.8841 7.95844 33.3032 6.07062 32.1052C4.1828 30.9071 2.73063 29.3098 1.6415 27.3856C0.552376 25.4252 0.0078125 23.2469 0.0078125 20.8872C0.0078125 18.5274 0.516072 16.3854 1.56889 14.4976C2.62172 12.5735 4.07389 11.0124 5.96171 9.85068C7.84953 8.68895 9.99148 8.07178 12.4602 8.07178C14.7836 8.07178 16.8167 8.61634 18.5593 9.70547C20.0114 10.5405 21.1369 11.6659 22.0082 13.0092C22.3349 13.5174 22.0808 14.1709 21.5362 14.3524L20.0841 14.8244C19.6847 14.9333 19.2854 14.7881 19.0675 14.425C18.4141 13.4448 17.5428 12.6461 16.4536 12.0652C15.2193 11.3392 13.8397 10.9761 12.3149 10.9761C10.645 10.9761 9.08387 11.4118 7.74061 12.2831C6.39736 13.1544 5.30823 14.3524 4.50954 15.8772C3.71084 17.3657 3.3115 19.072 3.3115 20.9235C3.3115 22.8113 3.71084 24.5176 4.54584 26.0424C5.38084 27.5672 6.46997 28.8015 7.84953 29.7091C9.22909 30.6167 10.7176 31.0524 12.3876 31.0524C13.4767 31.0524 14.5295 30.8708 15.546 30.4715C16.5625 30.0721 17.4338 29.5639 18.1599 28.9467C18.6682 28.4748 19.0675 27.9665 19.358 27.4582C19.5395 27.0952 19.9751 26.9137 20.3745 27.0226L21.8267 27.4582C22.3712 27.6035 22.6254 28.2206 22.3712 28.7289C21.9356 29.5276 21.3547 30.2537 20.6286 30.9434C19.6121 31.8511 18.4141 32.6134 16.9982 33.1217C15.6186 33.63 14.0939 33.8841 12.5328 33.8841Z" fill="#F8F8FD"/>
<path d="M54.1734 32.8673L44.8069 9.7778C44.5528 9.19693 44.9884 8.54346 45.6419 8.54346H47.0941C47.4571 8.54346 47.7838 8.76128 47.9291 9.12432L55.6619 28.8012C55.8434 29.3095 56.5695 29.3095 56.751 28.8012L64.5201 9.12432C64.6653 8.79759 64.992 8.54346 65.3551 8.54346H66.6257C67.2429 8.54346 67.6786 9.19693 67.4607 9.7778L58.0942 32.8673C57.949 33.194 57.6223 33.4119 57.2592 33.4119H54.9721C54.609 33.4482 54.2823 33.2303 54.1734 32.8673Z" fill="#F8F8FD"/>
<path d="M79.2238 33.8841C76.8278 33.8841 74.6858 33.3032 72.8343 32.1052C70.9465 30.9434 69.458 29.3461 68.4052 27.3856C67.316 25.4252 66.7715 23.2469 66.7715 20.8872C66.7715 18.5637 67.2797 16.4218 68.3326 14.4976C69.4217 12.5735 70.9102 11.0124 72.7617 9.85068C74.6495 8.68895 76.7552 8.07178 79.1512 8.07178C81.6199 8.07178 83.7619 8.65264 85.6134 9.85068C87.4649 11.0124 88.8808 12.5735 89.8973 14.5339C90.9501 16.4581 91.4584 18.5274 91.4584 20.8509C91.4584 20.9961 91.4584 21.1413 91.4584 21.2502C91.4584 21.7222 91.059 22.1215 90.5508 22.1215H70.765C70.4019 22.1215 70.1115 22.4483 70.1841 22.775C70.4019 24.2998 70.8739 25.6793 71.6363 26.8774C72.5076 28.2569 73.5967 29.3461 74.9399 30.1811C76.2832 30.9797 77.7354 31.3791 79.3328 31.3791C80.9664 31.3791 82.4912 30.9797 83.9071 30.1448C85.1414 29.455 86.049 28.5474 86.6662 27.4582C86.8477 27.1315 87.2834 26.9863 87.6464 27.0589L88.6992 27.3493C89.2438 27.4945 89.5342 28.148 89.2438 28.6563C88.7719 29.455 88.1547 30.2174 87.356 30.8708C86.3032 31.7784 85.0688 32.5408 83.6893 33.0491C82.3823 33.63 80.8575 33.8841 79.2238 33.8841ZM70.7286 19.798H88.4451C88.2999 18.0191 87.8279 16.4581 86.9566 15.0785C86.0853 13.6626 84.9962 12.6098 83.653 11.8474C82.3097 11.0487 80.8212 10.6494 79.2238 10.6494C77.5901 10.6494 76.138 11.0487 74.7947 11.8474C73.4515 12.6098 72.3623 13.6989 71.491 15.0785C70.765 16.2765 70.293 17.6198 70.1115 19.1446C70.0752 19.4713 70.3656 19.798 70.7286 19.798Z" fill="#F8F8FD"/>
<path d="M105.581 31.4153C105.726 31.851 105.508 32.3229 105.072 32.5045C104.709 32.6497 104.274 32.8312 103.729 33.049C102.713 33.4484 101.551 33.6662 100.208 33.6662C98.7917 33.6662 97.5937 33.2669 96.5409 32.4682C95.488 31.6695 94.9798 30.4714 94.9798 28.874V11.7021C94.9798 11.3754 94.7257 11.1213 94.3989 11.1213H92.4385C91.9302 11.1213 91.5309 10.7219 91.5309 10.2137V9.41498C91.5309 8.90672 91.9302 8.50737 92.4385 8.50737H94.3989C94.7257 8.50737 94.9798 8.25324 94.9798 7.9265V1.0287C94.9798 0.52044 95.3791 0.121094 95.8874 0.121094H97.3396C97.8478 0.121094 98.2472 0.52044 98.2472 1.0287V7.96281C98.2472 8.28955 98.5013 8.54368 98.828 8.54368H103.076C103.584 8.54368 103.983 8.94302 103.983 9.45128V10.25C103.983 10.7582 103.584 11.1576 103.076 11.1576H98.828C98.5013 11.1576 98.2472 11.4117 98.2472 11.7384V28.039C98.3198 28.9467 98.6465 29.6364 99.1911 30.1084C99.8083 30.5077 100.498 30.7256 101.26 30.7256C102.168 30.7256 102.93 30.5803 103.657 30.2899C103.838 30.2173 104.02 30.1447 104.165 30.0721C104.637 29.8543 105.218 30.1084 105.363 30.6166L105.581 31.4153Z" fill="#F8F8FD"/>
<path d="M119.195 31.4153C119.34 31.851 119.122 32.3229 118.686 32.5045C118.323 32.6497 117.888 32.8312 117.343 33.049C116.327 33.4484 115.165 33.6662 113.822 33.6662C112.406 33.6662 111.208 33.2669 110.155 32.4682C109.102 31.6695 108.594 30.4714 108.594 28.874V11.7021C108.594 11.3754 108.34 11.1213 108.013 11.1213H106.016C105.508 11.1213 105.109 10.7219 105.109 10.2137V9.41498C105.109 8.90672 105.508 8.50737 106.016 8.50737H107.977C108.303 8.50737 108.558 8.25324 108.558 7.9265V1.0287C108.558 0.52044 108.957 0.121094 109.465 0.121094H110.917C111.426 0.121094 111.825 0.52044 111.825 1.0287V7.96281C111.825 8.28955 112.079 8.54368 112.406 8.54368H116.653C117.162 8.54368 117.561 8.94302 117.561 9.45128V10.25C117.561 10.7582 117.162 11.1576 116.653 11.1576H112.406C112.079 11.1576 111.825 11.4117 111.825 11.7384V28.039C111.898 28.9467 112.224 29.6364 112.769 30.1084C113.386 30.5077 114.076 30.7256 114.838 30.7256C115.746 30.7256 116.508 30.5803 117.234 30.2899C117.416 30.2173 117.597 30.1447 117.743 30.0721C118.214 29.8543 118.795 30.1084 118.941 30.6166L119.195 31.4153Z" fill="#F8F8FD"/>
<path d="M130.703 33.7386C128.307 33.7386 126.165 33.1577 124.314 31.9597C122.426 30.7979 120.937 29.2006 119.885 27.2401C118.796 25.2797 118.251 23.1014 118.251 20.7417C118.251 18.4182 118.759 16.2762 119.812 14.3521C120.901 12.428 122.39 10.8669 124.241 9.70518C126.129 8.54344 128.235 7.92627 130.631 7.92627C133.099 7.92627 135.241 8.50714 137.093 9.70518C138.944 10.8669 140.36 12.428 141.377 14.3884C142.43 16.3125 142.938 18.3819 142.938 20.7054C142.938 20.8506 142.938 20.9958 142.938 21.1047C142.938 21.5767 142.539 21.976 142.03 21.976H122.244C121.881 21.976 121.591 22.3027 121.664 22.6295C121.881 24.1543 122.353 25.4975 123.116 26.7319C123.987 28.1114 125.076 29.2006 126.419 30.0355C127.763 30.8342 129.215 31.2336 130.812 31.2336C132.446 31.2336 133.971 30.8342 135.387 29.9992C136.621 29.3095 137.529 28.4019 138.146 27.3127C138.327 26.986 138.763 26.8408 139.126 26.9134L140.179 27.2038C140.723 27.349 141.014 28.0025 140.723 28.5108C140.251 29.3095 139.634 30.0719 138.835 30.7253C137.783 31.6329 136.548 32.3953 135.169 32.9036C133.825 33.4845 132.301 33.7386 130.703 33.7386ZM122.172 19.6525H139.235C139.598 19.6525 139.888 19.3258 139.816 18.9991C139.634 17.4743 139.162 16.131 138.4 14.933C137.529 13.5171 136.439 12.4643 135.096 11.7019C133.753 10.9032 132.264 10.5039 130.667 10.5039C129.033 10.5039 127.581 10.9032 126.238 11.7019C124.895 12.4643 123.806 13.5534 122.934 14.933C122.208 16.131 121.736 17.4743 121.555 18.9991C121.555 19.3621 121.845 19.6525 122.172 19.6525Z" fill="#F8F8FD"/>
<path d="M42.484 8.36214L45.0253 29.0919C45.2794 31.0523 43.8635 32.8312 41.9031 33.0853L30.431 34.5012C28.4705 34.7553 26.6916 33.3395 26.4375 31.379L23.8599 10.4678C23.8236 10.1047 24.0777 9.7417 24.4771 9.7054L26.3286 9.48758C26.6916 9.45127 27.0547 9.7054 27.091 10.1047L29.487 29.5275C29.596 30.5077 30.5036 31.1975 31.4838 31.0886L40.0879 30.0358C41.0681 29.9269 41.7579 29.0193 41.649 28.039L39.2529 8.54367C39.2166 8.18062 39.4707 7.81758 39.8701 7.78128L41.5401 7.56345C41.9757 7.49084 42.4477 7.85388 42.484 8.36214Z" fill="#ACBAC9"/>
<path d="M38.7084 28.1111L32.3552 28.8735C31.9195 28.9461 31.4839 28.6193 31.4476 28.1474L30.6489 21.7215L30.1043 17.2198C30.068 17.0383 30.2495 16.9294 30.3947 16.9657L31.3387 17.2561C33.2265 17.8007 35.2232 17.7644 37.0747 17.0746L37.8371 16.7842C37.9823 16.7478 38.1275 16.8205 38.1275 16.9657L39.3619 27.1672C39.4708 27.6391 39.1441 28.0748 38.7084 28.1111Z" fill="#0B66EF"/>
</svg>
