<svg width="21" height="20" viewBox="0 0 21 20" fill="none" xmlns="http://www.w3.org/2000/svg">
<path d="M16.1333 5.67522L6.31333 13.9313L11.8 19.8399C11.22 19.9466 10.62 20 10 20C4.47333 20.0067 0 15.5318 0 10.0033C0 4.47482 4.47333 0 10 0C15.1933 0 19.46 3.95465 19.9533 9.023L16.1333 5.68189V5.67522Z" fill="#2FC971"/>
<path d="M20.0021 10.0021C20.0021 14.9104 16.4621 18.9984 11.8021 19.8454L6.31543 13.9367L16.1354 5.68066L19.9554 9.02178C19.9888 9.34188 20.0021 9.66866 20.0021 10.0021Z" fill="#1FAF38"/>
<path d="M16.2947 6.08399C16.348 6.29072 16.3547 6.50413 16.308 6.71753C16.1947 7.2177 15.868 7.64451 15.528 8.0313C14.3413 9.40509 13.0413 10.6789 11.728 11.9326C11.068 12.5595 10.408 13.1797 9.75466 13.8132C9.15466 14.3934 8.57466 15.027 7.67466 15.047C6.93466 15.067 6.19466 14.2 5.70133 13.7265C5.22133 13.2597 4.76799 12.7662 4.32133 12.266C3.95466 11.8526 3.49466 11.4324 3.46799 10.8322C3.44799 10.3921 3.68133 9.97862 3.97466 9.65851C4.62799 8.93827 5.54133 8.79823 6.32133 9.4051C6.81466 9.78522 7.24799 10.2387 7.94133 10.8656C9.64799 9.07832 11.2813 7.3244 12.968 5.61717C13.4547 5.117 14.1413 4.59016 14.888 4.73687C15.5347 4.86358 16.1347 5.43711 16.3013 6.08399H16.2947Z" fill="#FDFEFE"/>
</svg>
