<svg width="355" height="337" viewBox="0 0 355 337" fill="none" xmlns="http://www.w3.org/2000/svg">
<path opacity="0.9" fill-rule="evenodd" clip-rule="evenodd" d="M263.484 355.39C317.078 355.39 360.524 311.944 360.524 258.351C360.524 204.757 317.078 161.311 263.484 161.311C209.891 161.311 166.444 204.757 166.444 258.351C166.444 311.944 209.891 355.39 263.484 355.39ZM263.484 358.39C318.735 358.39 363.524 313.601 363.524 258.351C363.524 203.1 318.735 158.311 263.484 158.311C208.234 158.311 163.444 203.1 163.444 258.351C163.444 313.601 208.234 358.39 263.484 358.39Z" fill="#69A1F8"/>
<path d="M318.383 258.351C318.383 288.671 293.803 313.25 263.483 313.25C233.163 313.25 208.583 288.671 208.583 258.351C208.583 228.03 233.163 203.451 263.483 203.451C293.803 203.451 318.383 228.03 318.383 258.351Z" fill="#69A1F8"/>
<path opacity="0.75" fill-rule="evenodd" clip-rule="evenodd" d="M263.481 404.19C344.026 404.19 409.321 338.896 409.321 258.351C409.321 177.806 344.026 112.511 263.481 112.511C182.936 112.511 117.642 177.806 117.642 258.351C117.642 338.896 182.936 404.19 263.481 404.19ZM263.481 407.19C345.683 407.19 412.321 340.553 412.321 258.351C412.321 176.149 345.683 109.511 263.481 109.511C181.279 109.511 114.642 176.149 114.642 258.351C114.642 340.553 181.279 407.19 263.481 407.19Z" fill="#69A1F8"/>
<path opacity="0.6" fill-rule="evenodd" clip-rule="evenodd" d="M263.483 460.075C374.892 460.075 465.207 369.76 465.207 258.351C465.207 146.942 374.892 56.6267 263.483 56.6267C152.074 56.6267 61.7588 146.942 61.7588 258.351C61.7588 369.76 152.074 460.075 263.483 460.075ZM263.483 463.075C376.549 463.075 468.207 371.417 468.207 258.351C468.207 145.285 376.549 53.6267 263.483 53.6267C150.417 53.6267 58.7588 145.285 58.7588 258.351C58.7588 371.417 150.417 463.075 263.483 463.075Z" fill="#69A1F8"/>
<path opacity="0.45" fill-rule="evenodd" clip-rule="evenodd" d="M263.335 517.538C407.114 517.538 523.67 400.982 523.67 257.202C523.67 113.423 407.114 -3.13306 263.335 -3.13306C119.555 -3.13306 2.99902 113.423 2.99902 257.202C2.99902 400.982 119.555 517.538 263.335 517.538ZM263.335 520.538C408.771 520.538 526.67 402.639 526.67 257.202C526.67 111.766 408.771 -6.13306 263.335 -6.13306C117.898 -6.13306 -0.000976563 111.766 -0.000976563 257.202C-0.000976563 402.639 117.898 520.538 263.335 520.538Z" fill="#69A1F8"/>
<path d="M59.331 94.4624C57.1198 93.2133 56.3399 90.4081 57.5891 88.1969C58.8383 85.9857 61.6435 85.2058 63.8547 86.455C66.0659 87.7041 66.8457 90.5093 65.5966 92.7205C64.3474 94.9317 61.5422 95.7116 59.331 94.4624Z" fill="#8EB9FA"/>
<path d="M280.827 120.965C276.684 118.624 275.164 113.474 277.431 109.46C279.698 105.447 284.894 104.091 289.037 106.431C293.18 108.772 294.7 113.922 292.433 117.936C290.166 121.949 284.97 123.305 280.827 120.965Z" fill="#8EB9FA"/>
<path d="M51.001 267.867C51.001 272.285 54.5827 275.867 59.001 275.867C63.4193 275.867 67.001 272.285 67.001 267.867C67.001 263.449 63.4193 259.867 59.001 259.867C54.5827 259.867 51.001 263.449 51.001 267.867Z" fill="#142683"/>
</svg>
